HIERARCHY
ROOT Hips
{
	OFFSET -3.958830 18.904000 13.208200
	CHANNELS 6 Xposition Yposition Zposition Zrotation Yrotation Xrotation 
	JOINT LHipJoint
	{
		OFFSET 0.000000 0.000000 0.000000
		CHANNELS 3 Zrotation Yrotation Xrotation
		JOINT LeftUpLeg
		{
			OFFSET 1.800000 -1.400000 0.085000
			CHANNELS 3 Zrotation Yrotation Xrotation
			JOINT LeftLeg
			{
				OFFSET 2.215000 -6.000000 0.000000
				CHANNELS 3 Zrotation Yrotation Xrotation
				JOINT LeftFoot
				{
					OFFSET 2.500000 -6.900000 0.000000
					CHANNELS 3 Zrotation Yrotation Xrotation
					JOINT LeftToeBase
					{
						OFFSET 0.200000 -0.500000 1.950000
						CHANNELS 3 Zrotation Yrotation Xrotation
						End Site
						{
							OFFSET 0.000000 0.000000 0.000000
						}
					}
				}
			}
		}
	}
	JOINT RHipJoint
	{
		OFFSET 0.000000 0.000000 0.000000
		CHANNELS 3 Zrotation Yrotation Xrotation
		JOINT RightUpLeg
		{
			OFFSET -1.800000 -1.400000 0.085000
			CHANNELS 3 Zrotation Yrotation Xrotation
			JOINT RightLeg
			{
				OFFSET -2.215000 -6.000000 0.000000
				CHANNELS 3 Zrotation Yrotation Xrotation
				JOINT RightFoot
				{
					OFFSET -2.500000 -6.900000 0.000000
					CHANNELS 3 Zrotation Yrotation Xrotation
					JOINT RightToeBase
					{
						OFFSET -0.200000 -0.500000 1.950000
						CHANNELS 3 Zrotation Yrotation Xrotation
						End Site
						{
							OFFSET 0.000000 0.000000 0.000000
						}
					}
				}
			}
		}
	}
	JOINT LowerBack
	{
		OFFSET 0.000000 0.000000 0.000000
		CHANNELS 3 Zrotation Yrotation Xrotation
		JOINT Spine
		{
			OFFSET -0.087000 1.940000 -0.288900
			CHANNELS 3 Zrotation Yrotation Xrotation
			JOINT Spine1
			{
				OFFSET 0.000000 1.950000 0.060000
				CHANNELS 3 Zrotation Yrotation Xrotation
				JOINT Neck
				{
					OFFSET 0.000000 0.000000 0.000000
					CHANNELS 3 Zrotation Yrotation Xrotation
					JOINT Neck1
					{
						OFFSET 0.000000 1.600000 0.340000
						CHANNELS 3 Zrotation Yrotation Xrotation
						JOINT Head
						{
							OFFSET 0.000000 1.667000 -0.240000
							CHANNELS 3 Zrotation Yrotation Xrotation
							End Site
							{
								OFFSET 0.000000 0.000000 0.000000
							}
						}
					}
				}
				JOINT LeftShoulder
				{
					OFFSET 0.000000 0.000000 0.000000
					CHANNELS 3 Zrotation Yrotation Xrotation
					JOINT LeftArm
					{
						OFFSET 2.700000 1.550000 -0.730000
						CHANNELS 3 Zrotation Yrotation Xrotation
						JOINT LeftForeArm
						{
							OFFSET 5.450000 0.000000 0.000000
							CHANNELS 3 Zrotation Yrotation Xrotation
							JOINT LeftHand
							{
								OFFSET 3.450000 0.000000 0.000000
								CHANNELS 3 Zrotation Yrotation Xrotation
								JOINT LeftHandIndex1
								{
									OFFSET 0.750000 0.000000 0.000000
									CHANNELS 3 Zrotation Yrotation Xrotation
									End Site
									{
										OFFSET 0.000000 0.000000 0.000000
									}
								}
							}
						}
					}
				}
				JOINT RightShoulder
				{
					OFFSET 0.000000 0.000000 0.000000
					CHANNELS 3 Zrotation Yrotation Xrotation
					JOINT RightArm
					{
						OFFSET -2.700000 1.550000 -0.730000
						CHANNELS 3 Zrotation Yrotation Xrotation
						JOINT RightForeArm
						{
							OFFSET -5.450000 0.000000 0.000000
							CHANNELS 3 Zrotation Yrotation Xrotation
							JOINT RightHand
							{
								OFFSET -3.450000 0.000000 0.000000
								CHANNELS 3 Zrotation Yrotation Xrotation
								JOINT RightHandIndex1
								{
									OFFSET -0.750000 0.000000 0.000000
									CHANNELS 3 Zrotation Yrotation Xrotation
									End Site
									{
										OFFSET 0.000000 0.000000 0.000000
									}
								}
							}
						}
					}
				}
			}
		}
	}
}
MOTION
Frames: 7
Frame Time: 0.016667
0.132600 18.127290 -1.490900 -9.624610 -15.457651 6.453831 -14.848141 11.986385 1.675790 9.468084 -1.557472 -14.750666 -3.416808 4.484852 10.631985 -0.780826 3.502219 3.559624 0.332940 0.049460 0.062290 18.962428 -8.828981 5.328103 -13.009406 12.207138 -45.740254 18.297763 -33.739204 77.849000 -3.216164 -15.644148 0.011229 -0.012820 0.473920 0.211380 -5.217198 -1.441470 -7.782675 21.496107 -4.085296 2.974784 -8.181343 -2.017829 13.916721 2.725667 -2.317262 -13.160072 -11.453679 6.415396 61.021383 -5.244860 3.570110 -2.007450 -8.321429 -9.927973 6.600758 -13.637456 3.011558 -2.605563 -9.346685 -74.199209 5.091414 -3.624801 2.923707 0.749800 0.272500 -0.001110 0.375940 2.800819 9.184514 7.963435 14.563129 -6.844469 -7.331854 3.334063 54.670345 2.864424 1.526675 -1.438996 -0.301850 0.434880 0.024650 -0.159900 
0.134150 18.099000 -1.495100 -9.998772 -15.493979 6.505243 -14.845928 11.957090 1.649336 9.803841 -1.570701 -14.819304 -3.350818 4.495655 10.712635 -0.796821 3.524391 3.552764 0.336540 0.048640 0.066000 18.966373 -8.788971 5.373811 -12.960937 12.292405 -45.825668 18.928375 -35.169024 78.888446 -3.334418 -16.006177 -0.050090 -0.011110 0.477600 0.215310 -5.233743 -1.443302 -7.800722 21.815675 -4.266537 2.959273 -8.090238 -2.186352 13.986896 2.743903 -2.194780 -13.130326 -11.125401 6.171013 61.088886 -5.635890 3.612480 -2.442600 -7.976194 -9.924251 6.581929 -13.289793 2.815511 -2.431054 -10.587611 -74.376216 6.030215 -3.632856 2.920649 0.761640 0.277120 0.000510 0.378890 2.428866 9.022580 7.907502 14.265172 -6.949707 -7.351153 2.895765 55.293062 2.721396 1.508258 -1.438581 -0.308340 0.444440 0.028000 -0.166020 
0.139120 18.027490 -1.504480 -10.942771 -16.933834 7.458072 -14.836945 11.804035 1.578058 10.565430 -1.628919 -15.431296 -3.457071 4.582089 10.968046 -0.819546 3.548845 3.549404 0.336440 0.060690 0.054110 19.000811 -8.666450 5.522736 -12.805948 13.230948 -46.964817 19.692327 -37.809591 81.806992 -3.590242 -16.787210 -0.177144 0.003480 0.495810 0.194260 -5.348387 -1.307826 -7.810285 22.985036 -4.011680 2.229898 -8.123756 -1.918082 14.136075 2.661602 -2.298457 -13.170034 -11.371636 6.365228 61.155482 -4.877570 3.397750 -3.516570 -7.323067 -9.726981 6.613027 -12.206459 2.934962 -1.893617 -14.311319 -76.040075 9.031157 -3.640696 2.901829 0.787670 0.269800 0.008890 0.396280 1.942035 8.842309 7.924167 13.376983 -7.975655 -7.313646 3.121037 56.953526 2.917515 1.492777 -1.433847 -0.335780 0.493630 0.026910 -0.162560 
0.142280 17.937580 -1.519420 -11.242856 -18.703433 7.917678 -14.858279 11.744986 1.517955 10.841218 -1.629546 -15.879146 -3.688244 4.860839 12.094459 -0.843377 3.633691 3.514224 0.350750 0.074990 0.076620 18.996467 -8.518195 5.665798 -13.172044 13.953705 -47.886272 19.949823 -40.449231 85.187583 -3.829510 -17.568793 -0.307390 0.026790 0.481020 0.150180 -5.362308 -1.379117 -7.841031 23.055799 -4.055056 2.243024 -8.069355 -1.941517 14.058574 2.585026 -3.054930 -13.041322 -13.189803 7.108042 60.353181 -4.499660 3.096560 -5.179370 -7.753350 -9.497623 6.497904 -10.423618 4.090312 -1.647845 -16.063729 -77.551246 10.642154 -3.638208 2.869813 0.815490 0.241610 0.007420 0.389320 2.539637 9.202468 7.797582 11.373761 -8.347032 -6.999444 4.301439 58.234459 3.546505 1.504027 -1.422341 -0.367040 0.535980 0.020180 -0.181050 
0.143740 17.828210 -1.525990 -11.702874 -19.924738 7.707882 -14.863658 11.788025 1.498232 11.445561 -1.516152 -15.629339 -4.112229 5.241525 13.281159 -0.824188 3.748714 3.439480 0.423880 0.164950 0.128450 18.971931 -8.495509 5.665134 -12.509976 14.336509 -46.592469 20.623912 -42.322820 86.671238 -4.012271 -17.942201 -0.370668 0.069350 0.405960 0.121500 -5.343014 -1.472354 -7.843477 23.202112 -4.263115 2.779346 -7.780939 -2.205650 13.987419 2.526355 -3.678759 -13.288310 -15.048815 8.278670 61.480904 -2.752240 2.655950 -7.930290 -7.512599 -9.352236 6.622073 -9.642922 5.028029 -1.577639 -18.491593 -77.765150 12.462086 -3.557076 2.878674 0.869290 0.160900 0.065720 0.395400 2.482923 9.566803 7.777775 9.891742 -8.166969 -6.690000 6.099153 58.316857 4.441574 1.539380 -1.415450 -0.353030 0.544960 -0.026710 -0.189640 
0.144920 17.718150 -1.539180 -12.000148 -21.392582 7.657001 -14.872274 11.859600 1.473576 11.627753 -1.430441 -15.847874 -3.918047 5.521242 14.997853 -0.816009 3.852711 3.361421 0.475690 0.222560 0.171320 18.946722 -8.533756 5.637729 -11.606586 14.656318 -45.415401 20.269250 -42.754918 87.847793 -4.107627 -18.119801 -0.413078 0.088760 0.353760 0.146550 -5.310372 -1.513006 -7.828849 22.772294 -4.186477 3.119704 -7.204139 -2.292923 14.072632 2.496950 -3.532515 -13.395028 -14.755898 8.836822 62.838489 -2.430280 3.395330 -9.516230 -7.253760 -9.363243 6.759134 -9.026436 5.521693 -1.415787 -21.819511 -77.780268 14.975075 -3.534256 2.920337 0.900410 0.129140 0.114240 0.391400 2.343223 9.507794 7.615906 9.192586 -7.506968 -6.454011 7.035685 57.831597 4.899452 1.551990 -1.418213 -0.321600 0.516140 -0.048770 -0.199890 
0.142530 17.575780 -1.559190 -12.048403 -23.205286 7.608470 -14.900344 11.969734 1.469403 11.480110 -1.360658 -16.584791 -3.594448 5.963295 17.674302 -0.848701 4.152511 3.269352 0.433420 0.155340 0.143930 18.904327 -8.578372 5.584928 -10.595194 14.976413 -44.004184 19.671308 -42.287697 88.402011 -4.088233 -18.148411 -0.411797 0.083050 0.428200 0.152230 -5.221811 -1.624848 -7.814306 21.806304 -3.994987 3.650769 -6.261573 -2.292425 14.188650 2.354918 -3.862160 -13.081882 -15.035768 9.222073 60.921123 -2.990920 3.897900 -9.174330 -7.275574 -8.883146 6.697414 -8.450003 6.345024 -1.197219 -24.922274 -79.232066 17.578769 -3.623638 2.899804 0.903330 0.182170 0.063590 0.387650 2.696095 9.382575 7.192692 8.011835 -6.921754 -6.351658 7.241026 58.340943 5.019413 1.519663 -1.407890 -0.376420 0.557290 -0.002570 -0.213530 
